<?xml version="1.0" encoding="UTF-8" standalone="no"?>
<svg
   xmlns:dc="http://purl.org/dc/elements/1.1/"
   xmlns:cc="http://creativecommons.org/ns#"
   xmlns:rdf="http://www.w3.org/1999/02/22-rdf-syntax-ns#"
   xmlns:svg="http://www.w3.org/2000/svg"
   xmlns="http://www.w3.org/2000/svg"
   xmlns:sodipodi="http://sodipodi.sourceforge.net/DTD/sodipodi-0.dtd"
   xmlns:inkscape="http://www.inkscape.org/namespaces/inkscape"
   width="512"
   height="512"
   viewBox="0 0 511.99999 511.99999"
   version="1.1"
   id="svg8"
   sodipodi:docname="u2f-browser-logo_fg.svg"
   inkscape:version="0.92.4 (5da689c313, 2019-01-14)">
  <sodipodi:namedview
     pagecolor="#ffffff"
     bordercolor="#666666"
     borderopacity="1"
     objecttolerance="10"
     gridtolerance="10"
     guidetolerance="10"
     inkscape:pageopacity="0"
     inkscape:pageshadow="2"
     inkscape:window-width="640"
     inkscape:window-height="480"
     id="namedview221"
     showgrid="false"
     inkscape:current-layer="svg8" />
  <defs
     id="defs2">
    <mask
       maskUnits="userSpaceOnUse"
       id="mask1104">
      <ellipse
         style="opacity:1;fill:#8b7c00;fill-opacity:1;stroke:none;stroke-width:1.35585129;stroke-linecap:square;stroke-linejoin:bevel;stroke-miterlimit:4;stroke-dasharray:none;stroke-opacity:1;paint-order:markers fill stroke"
         id="ellipse1106"
         cx="317.79697"
         cy="57.244583"
         rx="255.42992"
         ry="255.48283" />
    </mask>
    <clipPath
       id="clipPath1196"
       clipPathUnits="userSpaceOnUse">
      <ellipse
         ry="255.48199"
         rx="255.4305"
         cy="57.245232"
         cx="317.79584"
         id="ellipse1198"
         style="opacity:1;fill:#898989;fill-opacity:1;stroke:none;stroke-width:47.98101425;stroke-miterlimit:4;stroke-dasharray:none;stroke-opacity:1" />
    </clipPath>
  </defs>
  <metadata
     id="metadata5">
    <rdf:RDF>
      <cc:Work
         rdf:about="">
        <dc:format>image/svg+xml</dc:format>
        <dc:type
           rdf:resource="http://purl.org/dc/dcmitype/StillImage" />
        <dc:title />
      </cc:Work>
    </rdf:RDF>
  </metadata>
  <rect
     style="opacity:1;fill:#006a8a;fill-opacity:1;stroke:none;stroke-width:101.15955353;stroke-miterlimit:4;stroke-dasharray:none;stroke-opacity:1"
     id="rect225"
     width="763"
     height="676"
     x="-38.203655"
     y="-278.75476"
     clip-path="url(#clipPath1196)"
     transform="translate(-61.796345,198.75477)" />
  <path
     inkscape:connector-curvature="0"
     style="fill:#9dc5d2;fill-opacity:1;stroke:none;stroke-width:1.031811;stroke-linecap:square;stroke-linejoin:bevel;stroke-miterlimit:4;stroke-dasharray:none;stroke-opacity:1;paint-order:markers fill stroke"
     d="M 347.22162,157.10363 C 332.28414,65.10946 297.05236,0.51782 256.05159,0.51782 c -41.00077,0 -76.23272,64.59164 -91.17022,156.58581 z m -190.06648,98.89636 c 0,22.86978 1.23619,44.81238 3.39955,65.93088 h 190.89063 c 2.16336,-21.1185 3.39955,-43.0611 3.39955,-65.93088 0,-22.86977 -1.2362,-44.81236 -3.39955,-65.93087 H 160.55469 c -2.16336,21.11851 -3.39955,43.0611 -3.39955,65.93087 z M 491.65146,157.10363 C 462.1886,87.15515 402.54174,33.07115 328.88454,11.2316 354.02076,46.05129 371.32757,98.487 380.39307,157.10363 Z M 183.11548,11.2316 C 109.56125,33.07115 49.811405,87.15515 20.451534,157.10363 H 131.70991 C 140.67242,98.487 157.97922,46.05129 183.11548,11.2316 Z M 502.67429,190.06912 H 384.51378 c 2.16336,21.63359 3.39955,43.7822 3.39955,65.93087 0,22.14867 -1.23619,44.29729 -3.39955,65.93088 h 118.05753 c 5.6659,-21.1185 8.85942,-43.0611 8.85942,-65.93088 0,-22.86977 -3.19352,-44.81236 -8.75644,-65.93087 z m -378.48458,65.93087 c 0,-22.14867 1.23618,-44.29728 3.39949,-65.93087 H 9.428693 c -5.562861,21.11851 -8.859426,43.0611 -8.859426,65.93087 0,22.86978 3.296565,44.81238 8.859426,65.93088 H 127.48621 c -2.06032,-21.63359 -3.29651,-43.78221 -3.2965,-65.93088 z m 40.69165,98.89637 c 14.9375,91.99417 50.16945,156.58582 91.17023,156.58582 41.00077,0 76.23256,-64.59165 91.17003,-156.58582 z M 328.98763,500.76839 C 402.54174,478.92885 462.29165,424.84485 491.75444,354.89636 H 380.49612 c -9.06551,58.61663 -26.37238,111.0523 -51.50849,145.87203 z M 20.451534,354.89636 c 29.462851,69.94849 89.109716,124.03242 162.766986,145.87203 -25.13625,-34.81973 -42.44311,-87.2554 -51.50861,-145.87203 z"
     id="path1736" />
</svg>
