<?xml version="1.0" encoding="UTF-8" standalone="no"?>
<!-- Created with Inkscape (http://www.inkscape.org/) -->

<svg
   xmlns:dc="http://purl.org/dc/elements/1.1/"
   xmlns:cc="http://creativecommons.org/ns#"
   xmlns:rdf="http://www.w3.org/1999/02/22-rdf-syntax-ns#"
   xmlns:svg="http://www.w3.org/2000/svg"
   xmlns="http://www.w3.org/2000/svg"
   xmlns:sodipodi="http://sodipodi.sourceforge.net/DTD/sodipodi-0.dtd"
   xmlns:inkscape="http://www.inkscape.org/namespaces/inkscape"
   width="100"
   height="100"
   viewBox="0 0 100 100"
   version="1.1"
   id="svg8"
   sodipodi:docname="u2f-browser-logo.svg"
   inkscape:version="0.92.4 (5da689c313, 2019-01-14)"
   inkscape:export-filename="/home/schuerm/Cotech/cloud/Cotech/Development/APKs/example-fido-icon.png"
   inkscape:export-xdpi="256"
   inkscape:export-ydpi="256">
  <defs
     id="defs2">
    <inkscape:perspective
       inkscape:vp_x="0 : 1.8897637 : 1"
       inkscape:vp_y="0 : 3779.5274 : 0"
       inkscape:vp_z="3.7795275 : 1.8897637 : 1"
       sodipodi:type="inkscape:persp3d"
       inkscape:persp3d-origin="1.8897638 : 1.2598425 : 1"
       id="perspective2824" />
  </defs>
  <sodipodi:namedview
     id="base"
     pagecolor="#ffffff"
     bordercolor="#666666"
     borderopacity="1.0"
     inkscape:pageopacity="0.0"
     inkscape:pageshadow="2"
     inkscape:zoom="5.6"
     inkscape:cx="15.979295"
     inkscape:cy="21.555097"
     inkscape:document-units="mm"
     inkscape:current-layer="layer1"
     showgrid="false"
     inkscape:window-width="2560"
     inkscape:window-height="1410"
     inkscape:window-x="0"
     inkscape:window-y="30"
     inkscape:window-maximized="1"
     fit-margin-top="5"
     fit-margin-left="5"
     fit-margin-right="5"
     fit-margin-bottom="5"
     units="px" />
  <metadata
     id="metadata5">
    <rdf:RDF>
      <cc:Work
         rdf:about="">
        <dc:format>image/svg+xml</dc:format>
        <dc:type
           rdf:resource="http://purl.org/dc/dcmitype/StillImage" />
        <dc:title></dc:title>
      </cc:Work>
    </rdf:RDF>
  </metadata>
  <g
     inkscape:label="Layer 1"
     inkscape:groupmode="layer"
     id="layer1"
     transform="translate(-64.906581,-209.75514)">
    <path
       id="path1736"
       d="m 132.46814,241.10973 c -2.82984,-17.4279 -9.50435,-29.66451 -17.27177,-29.66451 -7.76742,0 -14.44196,12.23661 -17.271805,29.66451 z m -36.007275,18.73549 c 0,4.33258 0.23419,8.48951 0.64403,12.49032 H 133.2683 c 0.40984,-4.00081 0.64403,-8.15774 0.64403,-12.49032 0,-4.33258 -0.23419,-8.48951 -0.64403,-12.49032 H 97.104895 c -0.40984,4.00081 -0.64403,8.15774 -0.64403,12.49032 z m 63.368885,-18.73549 c -5.58161,-13.25144 -16.88145,-23.49742 -30.83549,-27.63483 4.76195,6.59644 8.04065,16.53016 9.75807,27.63483 z M 101.37894,213.4749 c -13.934535,4.13741 -25.253885,14.38339 -30.815985,27.63483 h 21.07742 c 1.69791,-11.10467 4.97661,-21.03839 9.738565,-27.63483 z m 60.53904,33.88 h -22.385 c 0.40984,4.09839 0.64403,8.29435 0.64403,12.49032 0,4.19597 -0.23419,8.39193 -0.64403,12.49032 h 22.36549 c 1.07338,-4.00081 1.67838,-8.15774 1.67838,-12.49032 0,-4.33258 -0.605,-8.48951 -1.65887,-12.49032 z m -71.702275,12.49032 c 0,-4.19597 0.23419,-8.39193 0.64402,-12.49032 h -22.385 c -1.05386,4.00081 -1.67838,8.15774 -1.67838,12.49032 0,4.33258 0.62452,8.48951 1.67838,12.49032 h 22.36549 c -0.39032,-4.09839 -0.62451,-8.29435 -0.62451,-12.49032 z m 7.70886,18.73549 c 2.829845,17.4279 9.504385,29.66451 17.271805,29.66451 7.76742,0 14.44193,-12.23661 17.27177,-29.66451 z m 31.089225,27.63483 c 13.93451,-4.13741 25.25387,-14.38339 30.83547,-27.63483 h -21.07741 c -1.71742,11.10467 -4.99613,21.03838 -9.75806,27.63483 z M 70.562955,278.58071 c 5.58161,13.25144 16.88145,23.49741 30.835505,27.63483 -4.761955,-6.59645 -8.040665,-16.53016 -9.758085,-27.63483 z"
       inkscape:connector-curvature="0"
       style="fill:#9dc5d2;stroke-width:0.19516128;fill-opacity:1" />
    <g
       id="g18"
       transform="matrix(0.85229866,0,0,0.85229866,57.307826,155.02592)">
      <path
         style="fill:#006a8b;fill-opacity:1;stroke-width:2.29256368"
         id="path2"
         d="m 90.306569,117.93694 -20.63307,9.17026 v 13.75538 c 0,12.72373 8.80345,24.62213 20.63307,27.51076 11.829631,-2.88863 20.633091,-14.78703 20.633091,-27.51076 V 127.1072 Z"
         inkscape:connector-curvature="0" />
      <g
         transform="matrix(1.277506,0,0,1.277506,-25.002938,-43.952824)"
         id="g4574">
        <path
           sodipodi:nodetypes="cccccccccccccccc"
           inkscape:connector-curvature="0"
           id="path4504"
           style="fill:none;stroke:#ffffff;stroke-width:1.25172913;stroke-linecap:round;stroke-linejoin:round;stroke-miterlimit:4;stroke-dasharray:none;stroke-opacity:1"
           d="m 87.868944,137.86201 -0.0088,-4.85406 5.363366,-0.001 -0.02515,4.98555 m -3.93558,0.29618 -0.0025,5.11101 m 3.01137,-5.21312 0.0031,7.85797 -3.078936,2.64822 -0.02124,4.3168 m -4.162259,-3.10454 -0.0664,-11.83008 11.254564,0.05 c -0.0037,6.57192 -0.03149,13.81706 -0.01961,19.63432 l -11.147942,-0.007 -0.01985,-2.64397" />
        <circle
           style="fill:#ffffff;fill-opacity:1;stroke:none;stroke-width:1.25172913;stroke-linecap:round;stroke-linejoin:round;stroke-miterlimit:4;stroke-dasharray:none;stroke-dashoffset:0;stroke-opacity:1"
           id="path4514"
           cx="38.125797"
           cy="-164.79709"
           r="1.8629248"
           transform="rotate(135.14618)" />
        <circle
           style="fill:#ffffff;fill-opacity:1;stroke:none;stroke-width:1.25172913;stroke-linecap:round;stroke-linejoin:round;stroke-miterlimit:4;stroke-dasharray:none;stroke-dashoffset:0;stroke-opacity:1"
           id="path4514-6"
           cx="44.913998"
           cy="-171.57922"
           r="1.8629248"
           transform="rotate(135.14618)" />
      </g>
    </g>
  </g>
</svg>
